<svg width="175" height="16" viewBox="0 0 175 16" fill="none" xmlns="http://www.w3.org/2000/svg">
<path d="M5.146 7.121C5.146 6.351 5.069 5.73267 4.915 5.266C4.76567 4.79933 4.56267 4.44467 4.306 4.202C4.054 3.95933 3.77167 3.796 3.459 3.712C3.151 3.628 2.836 3.586 2.514 3.586H1.625V10.768H2.521C2.857 10.768 3.18133 10.7143 3.494 10.607C3.80667 10.4997 4.08667 10.313 4.334 10.047C4.586 9.781 4.78433 9.41233 4.929 8.941C5.07367 8.465 5.146 7.85833 5.146 7.121ZM6.854 7.121C6.854 7.919 6.76767 8.60033 6.595 9.165C6.427 9.72967 6.19367 10.1987 5.895 10.572C5.601 10.9407 5.26033 11.23 4.873 11.44C4.49033 11.6453 4.08433 11.79 3.655 11.874C3.22567 11.958 2.79633 12 2.367 12H0.00100005V2.34H2.206C2.794 2.34 3.36333 2.403 3.914 2.529C4.46933 2.655 4.96633 2.88833 5.405 3.229C5.84833 3.56967 6.20067 4.05267 6.462 4.678C6.72333 5.30333 6.854 6.11767 6.854 7.121ZM12.6795 4.608V10.852H14.6885V12H8.89953V10.852H11.1115V5.756H8.96953V4.608H12.6795ZM11.5875 0.988999C11.8955 0.988999 12.1429 1.08233 12.3295 1.269C12.5209 1.45567 12.6165 1.689 12.6165 1.969C12.6165 2.249 12.5209 2.48467 12.3295 2.676C12.1429 2.86733 11.8955 2.963 11.5875 2.963C11.2889 2.963 11.0439 2.86733 10.8525 2.676C10.6612 2.48467 10.5655 2.249 10.5655 1.969C10.5655 1.689 10.6612 1.45567 10.8525 1.269C11.0439 1.08233 11.2889 0.988999 11.5875 0.988999ZM22.6841 10.187C22.6841 10.4763 22.7284 10.6887 22.8171 10.824C22.9057 10.9547 23.0481 11.0527 23.2441 11.118L22.8941 12.182C22.5301 12.14 22.2174 12.0397 21.9561 11.881C21.6947 11.7223 21.4964 11.482 21.3611 11.16C21.0904 11.5007 20.7474 11.7573 20.3321 11.93C19.9167 12.1027 19.4734 12.189 19.0021 12.189C18.2554 12.189 17.6627 11.979 17.2241 11.559C16.7901 11.1343 16.5731 10.579 16.5731 9.893C16.5731 9.11367 16.8764 8.514 17.4831 8.094C18.0897 7.674 18.9577 7.464 20.0871 7.464H21.1441V6.981C21.1441 6.505 20.9994 6.162 20.7101 5.952C20.4254 5.742 20.0217 5.637 19.4991 5.637C19.2564 5.637 18.9624 5.66967 18.6171 5.735C18.2717 5.79567 17.9101 5.89133 17.5321 6.022L17.1471 4.916C17.6091 4.74333 18.0617 4.61733 18.5051 4.538C18.9484 4.454 19.3591 4.412 19.7371 4.412C20.7264 4.412 21.4637 4.63133 21.9491 5.07C22.4391 5.50867 22.6841 6.11533 22.6841 6.89V10.187ZM19.4781 11.034C19.7954 11.034 20.1057 10.95 20.4091 10.782C20.7124 10.614 20.9574 10.3783 21.1441 10.075V8.444H20.2761C19.5387 8.444 19.0114 8.56767 18.6941 8.815C18.3767 9.05767 18.2181 9.39367 18.2181 9.823C18.2181 10.215 18.3231 10.516 18.5331 10.726C18.7477 10.9313 19.0627 11.034 19.4781 11.034ZM21.0181 0.639L21.6761 1.899L18.6101 3.131L18.1481 2.319L21.0181 0.639ZM25.4996 12V10.88H26.5846V5.721H25.4996V4.608H27.7816L28.0686 6.323C28.3439 5.70233 28.6846 5.231 29.0906 4.909C29.5013 4.58233 30.0286 4.419 30.6726 4.419C30.8919 4.419 31.0879 4.43767 31.2606 4.475C31.4379 4.50767 31.6129 4.552 31.7856 4.608L31.3166 5.952C31.1673 5.91 31.0273 5.87967 30.8966 5.861C30.7659 5.83767 30.6213 5.826 30.4626 5.826C29.9259 5.826 29.4616 6.02667 29.0696 6.428C28.6823 6.82933 28.3766 7.39867 28.1526 8.136V10.88H29.6436V12H25.4996ZM30.3996 7.331V5.511L30.5956 4.608H31.7856L31.5196 7.331H30.3996ZM37.8631 4.608V10.852H39.8721V12H34.0831V10.852H36.2951V5.756H34.1531V4.608H37.8631ZM36.7711 0.988999C37.0791 0.988999 37.3265 1.08233 37.5131 1.269C37.7045 1.45567 37.8001 1.689 37.8001 1.969C37.8001 2.249 37.7045 2.48467 37.5131 2.676C37.3265 2.86733 37.0791 2.963 36.7711 2.963C36.4725 2.963 36.2275 2.86733 36.0361 2.676C35.8448 2.48467 35.7491 2.249 35.7491 1.969C35.7491 1.689 35.8448 1.45567 36.0361 1.269C36.2275 1.08233 36.4725 0.988999 36.7711 0.988999ZM45.1797 4.412C45.903 4.412 46.512 4.573 47.0067 4.895C47.5013 5.217 47.8747 5.66733 48.1267 6.246C48.3833 6.82467 48.5117 7.506 48.5117 8.29C48.5117 9.06933 48.381 9.753 48.1197 10.341C47.863 10.9243 47.485 11.3793 46.9857 11.706C46.491 12.028 45.8867 12.189 45.1727 12.189C44.4587 12.189 43.852 12.0327 43.3527 11.72C42.858 11.4027 42.48 10.9523 42.2187 10.369C41.962 9.78567 41.8337 9.09733 41.8337 8.304C41.8337 7.534 41.962 6.85733 42.2187 6.274C42.48 5.69067 42.8603 5.23567 43.3597 4.909C43.859 4.57767 44.4657 4.412 45.1797 4.412ZM45.1797 5.63C44.615 5.63 44.1903 5.847 43.9057 6.281C43.621 6.71033 43.4787 7.38467 43.4787 8.304C43.4787 9.21867 43.6187 9.893 43.8987 10.327C44.1833 10.761 44.608 10.978 45.1727 10.978C45.7373 10.978 46.1597 10.761 46.4397 10.327C46.7243 9.893 46.8667 9.214 46.8667 8.29C46.8667 7.38 46.7267 6.71033 46.4467 6.281C46.1667 5.847 45.7443 5.63 45.1797 5.63ZM63.3477 1.465L64.9157 1.64V12H63.5367L63.4247 11.09C63.1727 11.44 62.8717 11.7107 62.5217 11.902C62.1717 12.0933 61.7797 12.189 61.3457 12.189C60.7111 12.189 60.1884 12.028 59.7777 11.706C59.3671 11.3793 59.0614 10.9243 58.8607 10.341C58.6647 9.753 58.5667 9.074 58.5667 8.304C58.5667 7.55267 58.6834 6.88533 58.9167 6.302C59.1501 5.714 59.4837 5.252 59.9177 4.916C60.3517 4.58 60.8744 4.412 61.4857 4.412C61.8731 4.412 62.2207 4.482 62.5287 4.622C62.8367 4.75733 63.1097 4.95567 63.3477 5.217V1.465ZM61.8987 5.616C61.3714 5.616 60.9607 5.83533 60.6667 6.274C60.3727 6.708 60.2257 7.38467 60.2257 8.304C60.2257 8.934 60.2864 9.44733 60.4077 9.844C60.5291 10.236 60.7041 10.5253 60.9327 10.712C61.1614 10.894 61.4367 10.985 61.7587 10.985C62.1134 10.985 62.4214 10.8823 62.6827 10.677C62.9441 10.4717 63.1657 10.2243 63.3477 9.935V6.435C63.1657 6.17367 62.9534 5.973 62.7107 5.833C62.4681 5.68833 62.1974 5.616 61.8987 5.616ZM70.3633 4.412C71.0866 4.412 71.6956 4.573 72.1903 4.895C72.6849 5.217 73.0583 5.66733 73.3103 6.246C73.5669 6.82467 73.6953 7.506 73.6953 8.29C73.6953 9.06933 73.5646 9.753 73.3033 10.341C73.0466 10.9243 72.6686 11.3793 72.1693 11.706C71.6746 12.028 71.0703 12.189 70.3563 12.189C69.6423 12.189 69.0356 12.0327 68.5363 11.72C68.0416 11.4027 67.6636 10.9523 67.4023 10.369C67.1456 9.78567 67.0173 9.09733 67.0173 8.304C67.0173 7.534 67.1456 6.85733 67.4023 6.274C67.6636 5.69067 68.0439 5.23567 68.5433 4.909C69.0426 4.57767 69.6493 4.412 70.3633 4.412ZM70.3633 5.63C69.7986 5.63 69.3739 5.847 69.0893 6.281C68.8046 6.71033 68.6623 7.38467 68.6623 8.304C68.6623 9.21867 68.8023 9.893 69.0823 10.327C69.3669 10.761 69.7916 10.978 70.3563 10.978C70.9209 10.978 71.3433 10.761 71.6233 10.327C71.9079 9.893 72.0503 9.214 72.0503 8.29C72.0503 7.38 71.9103 6.71033 71.6303 6.281C71.3503 5.847 70.9279 5.63 70.3633 5.63ZM89.1403 5.385C89.1403 4.94167 89.054 4.587 88.8813 4.321C88.7133 4.055 88.473 3.86133 88.1603 3.74C87.8523 3.61867 87.4883 3.558 87.0683 3.558H85.9063V7.317H87.0893C87.4953 7.317 87.8523 7.25633 88.1603 7.135C88.4683 7.01367 88.7086 6.813 88.8813 6.533C89.054 6.253 89.1403 5.87033 89.1403 5.385ZM90.8483 5.371C90.8483 6.12233 90.6873 6.73133 90.3653 7.198C90.048 7.66467 89.6046 8.00767 89.0353 8.227C88.466 8.44633 87.8126 8.556 87.0753 8.556H85.9063V12H84.2823V2.34H86.9633C88.1766 2.34 89.1263 2.58967 89.8123 3.089C90.503 3.58367 90.8483 4.34433 90.8483 5.371ZM92.6558 12V10.88H93.7408V5.721H92.6558V4.608H94.9378L95.2248 6.323C95.5002 5.70233 95.8408 5.231 96.2468 4.909C96.6575 4.58233 97.1848 4.419 97.8288 4.419C98.0482 4.419 98.2442 4.43767 98.4168 4.475C98.5942 4.50767 98.7692 4.552 98.9418 4.608L98.4728 5.952C98.3235 5.91 98.1835 5.87967 98.0528 5.861C97.9222 5.83767 97.7775 5.826 97.6188 5.826C97.0822 5.826 96.6178 6.02667 96.2258 6.428C95.8385 6.82933 95.5328 7.39867 95.3088 8.136V10.88H96.7998V12H92.6558ZM97.5558 7.331V5.511L97.7518 4.608H98.9418L98.6758 7.331H97.5558ZM103.941 4.412C104.665 4.412 105.274 4.573 105.768 4.895C106.263 5.217 106.636 5.66733 106.888 6.246C107.145 6.82467 107.273 7.506 107.273 8.29C107.273 9.06933 107.143 9.753 106.881 10.341C106.625 10.9243 106.247 11.3793 105.747 11.706C105.253 12.028 104.648 12.189 103.934 12.189C103.22 12.189 102.614 12.0327 102.114 11.72C101.62 11.4027 101.242 10.9523 100.98 10.369C100.724 9.78567 100.595 9.09733 100.595 8.304C100.595 7.534 100.724 6.85733 100.98 6.274C101.242 5.69067 101.622 5.23567 102.121 4.909C102.621 4.57767 103.227 4.412 103.941 4.412ZM103.941 5.63C103.377 5.63 102.952 5.847 102.667 6.281C102.383 6.71033 102.24 7.38467 102.24 8.304C102.24 9.21867 102.38 9.893 102.66 10.327C102.945 10.761 103.37 10.978 103.934 10.978C104.499 10.978 104.921 10.761 105.201 10.327C105.486 9.893 105.628 9.214 105.628 8.29C105.628 7.38 105.488 6.71033 105.208 6.281C104.928 5.847 104.506 5.63 103.941 5.63ZM115.598 3.67L116.018 4.972C115.724 5.07 115.4 5.13533 115.045 5.168C114.695 5.20067 114.303 5.217 113.869 5.217C114.312 5.413 114.646 5.665 114.87 5.973C115.094 6.27633 115.206 6.64967 115.206 7.093C115.206 7.57367 115.089 8.003 114.856 8.381C114.623 8.759 114.289 9.05533 113.855 9.27C113.421 9.48467 112.901 9.592 112.294 9.592C112.079 9.592 111.893 9.58267 111.734 9.564C111.58 9.54533 111.428 9.515 111.279 9.473C111.186 9.53833 111.106 9.627 111.041 9.739C110.98 9.84633 110.95 9.96067 110.95 10.082C110.95 10.2313 111.011 10.362 111.132 10.474C111.258 10.5813 111.505 10.635 111.874 10.635H113.162C113.689 10.635 114.154 10.726 114.555 10.908C114.961 11.0853 115.278 11.3303 115.507 11.643C115.74 11.951 115.857 12.301 115.857 12.693C115.857 13.4303 115.54 14.002 114.905 14.408C114.27 14.814 113.356 15.017 112.161 15.017C111.316 15.017 110.654 14.9307 110.173 14.758C109.692 14.5853 109.354 14.3287 109.158 13.988C108.962 13.6473 108.864 13.2297 108.864 12.735H110.271C110.271 12.9917 110.32 13.204 110.418 13.372C110.521 13.54 110.71 13.666 110.985 13.75C111.26 13.834 111.657 13.876 112.175 13.876C112.693 13.876 113.104 13.8317 113.407 13.743C113.715 13.659 113.937 13.5353 114.072 13.372C114.212 13.2133 114.282 13.022 114.282 12.798C114.282 12.4993 114.151 12.2683 113.89 12.105C113.629 11.9417 113.279 11.86 112.84 11.86H111.573C110.873 11.86 110.36 11.7177 110.033 11.433C109.711 11.1483 109.55 10.817 109.55 10.439C109.55 10.187 109.62 9.94433 109.76 9.711C109.905 9.47767 110.11 9.27467 110.376 9.102C109.933 8.86867 109.608 8.58633 109.403 8.255C109.202 7.919 109.102 7.513 109.102 7.037C109.102 6.51433 109.233 6.057 109.494 5.665C109.755 5.273 110.117 4.96733 110.579 4.748C111.046 4.52867 111.582 4.419 112.189 4.419C112.782 4.419 113.276 4.38867 113.673 4.328C114.07 4.26267 114.415 4.17167 114.709 4.055C115.008 3.93833 115.304 3.81 115.598 3.67ZM112.203 5.497C111.704 5.497 111.328 5.63933 111.076 5.924C110.824 6.204 110.698 6.57033 110.698 7.023C110.698 7.48967 110.826 7.86533 111.083 8.15C111.344 8.43 111.725 8.57 112.224 8.57C112.686 8.57 113.038 8.43467 113.281 8.164C113.528 7.89333 113.652 7.50833 113.652 7.009C113.652 6.505 113.531 6.127 113.288 5.875C113.045 5.623 112.684 5.497 112.203 5.497ZM117.839 12V10.88H118.924V5.721H117.839V4.608H120.121L120.408 6.323C120.684 5.70233 121.024 5.231 121.43 4.909C121.841 4.58233 122.368 4.419 123.012 4.419C123.232 4.419 123.428 4.43767 123.6 4.475C123.778 4.50767 123.953 4.552 124.125 4.608L123.656 5.952C123.507 5.91 123.367 5.87967 123.236 5.861C123.106 5.83767 122.961 5.826 122.802 5.826C122.266 5.826 121.801 6.02667 121.409 6.428C121.022 6.82933 120.716 7.39867 120.492 8.136V10.88H121.983V12H117.839ZM122.739 7.331V5.511L122.935 4.608H124.125L123.859 7.331H122.739ZM131.813 10.187C131.813 10.4763 131.857 10.6887 131.946 10.824C132.035 10.9547 132.177 11.0527 132.373 11.118L132.023 12.182C131.659 12.14 131.346 12.0397 131.085 11.881C130.824 11.7223 130.625 11.482 130.49 11.16C130.219 11.5007 129.876 11.7573 129.461 11.93C129.046 12.1027 128.602 12.189 128.131 12.189C127.384 12.189 126.792 11.979 126.353 11.559C125.919 11.1343 125.702 10.579 125.702 9.893C125.702 9.11367 126.005 8.514 126.612 8.094C127.219 7.674 128.087 7.464 129.216 7.464H130.273V6.981C130.273 6.505 130.128 6.162 129.839 5.952C129.554 5.742 129.151 5.637 128.628 5.637C128.385 5.637 128.091 5.66967 127.746 5.735C127.401 5.79567 127.039 5.89133 126.661 6.022L126.276 4.916C126.738 4.74333 127.191 4.61733 127.634 4.538C128.077 4.454 128.488 4.412 128.866 4.412C129.855 4.412 130.593 4.63133 131.078 5.07C131.568 5.50867 131.813 6.11533 131.813 6.89V10.187ZM128.607 11.034C128.924 11.034 129.235 10.95 129.538 10.782C129.841 10.614 130.086 10.3783 130.273 10.075V8.444H129.405C128.668 8.444 128.14 8.56767 127.823 8.815C127.506 9.05767 127.347 9.39367 127.347 9.823C127.347 10.215 127.452 10.516 127.662 10.726C127.877 10.9313 128.192 11.034 128.607 11.034ZM139.655 4.412C139.935 4.412 140.187 4.47267 140.411 4.594C140.635 4.71533 140.81 4.92767 140.936 5.231C141.066 5.53433 141.132 5.959 141.132 6.505V12H139.739V6.722C139.739 6.33467 139.711 6.057 139.655 5.889C139.603 5.721 139.466 5.637 139.242 5.637C139.064 5.637 138.885 5.693 138.703 5.805C138.521 5.91233 138.336 6.099 138.15 6.365V12H136.883V6.722C136.883 6.33467 136.855 6.057 136.799 5.889C136.747 5.721 136.61 5.637 136.386 5.637C136.204 5.637 136.022 5.693 135.84 5.805C135.662 5.91233 135.48 6.099 135.294 6.365V12H133.894V4.608H135.077L135.182 5.406C135.392 5.112 135.62 4.874 135.868 4.692C136.115 4.50533 136.414 4.412 136.764 4.412C137.044 4.412 137.298 4.482 137.527 4.622C137.755 4.762 137.923 5.007 138.031 5.357C138.236 5.077 138.469 4.85067 138.731 4.678C138.992 4.50067 139.3 4.412 139.655 4.412ZM148.602 10.187C148.602 10.4763 148.646 10.6887 148.735 10.824C148.824 10.9547 148.966 11.0527 149.162 11.118L148.812 12.182C148.448 12.14 148.135 12.0397 147.874 11.881C147.613 11.7223 147.414 11.482 147.279 11.16C147.008 11.5007 146.665 11.7573 146.25 11.93C145.835 12.1027 145.391 12.189 144.92 12.189C144.173 12.189 143.581 11.979 143.142 11.559C142.708 11.1343 142.491 10.579 142.491 9.893C142.491 9.11367 142.794 8.514 143.401 8.094C144.008 7.674 144.876 7.464 146.005 7.464H147.062V6.981C147.062 6.505 146.917 6.162 146.628 5.952C146.343 5.742 145.94 5.637 145.417 5.637C145.174 5.637 144.88 5.66967 144.535 5.735C144.19 5.79567 143.828 5.89133 143.45 6.022L143.065 4.916C143.527 4.74333 143.98 4.61733 144.423 4.538C144.866 4.454 145.277 4.412 145.655 4.412C146.644 4.412 147.382 4.63133 147.867 5.07C148.357 5.50867 148.602 6.11533 148.602 6.89V10.187ZM145.396 11.034C145.713 11.034 146.024 10.95 146.327 10.782C146.63 10.614 146.875 10.3783 147.062 10.075V8.444H146.194C145.457 8.444 144.929 8.56767 144.612 8.815C144.295 9.05767 144.136 9.39367 144.136 9.823C144.136 10.215 144.241 10.516 144.451 10.726C144.666 10.9313 144.981 11.034 145.396 11.034ZM155.688 1.465L157.256 1.64V12H155.877L155.765 11.09C155.513 11.44 155.212 11.7107 154.862 11.902C154.512 12.0933 154.12 12.189 153.686 12.189C153.051 12.189 152.528 12.028 152.118 11.706C151.707 11.3793 151.401 10.9243 151.201 10.341C151.005 9.753 150.907 9.074 150.907 8.304C150.907 7.55267 151.023 6.88533 151.257 6.302C151.49 5.714 151.824 5.252 152.258 4.916C152.692 4.58 153.214 4.412 153.826 4.412C154.213 4.412 154.561 4.482 154.869 4.622C155.177 4.75733 155.45 4.95567 155.688 5.217V1.465ZM154.239 5.616C153.711 5.616 153.301 5.83533 153.007 6.274C152.713 6.708 152.566 7.38467 152.566 8.304C152.566 8.934 152.626 9.44733 152.748 9.844C152.869 10.236 153.044 10.5253 153.273 10.712C153.501 10.894 153.777 10.985 154.099 10.985C154.453 10.985 154.761 10.8823 155.023 10.677C155.284 10.4717 155.506 10.2243 155.688 9.935V6.435C155.506 6.17367 155.293 5.973 155.051 5.833C154.808 5.68833 154.537 5.616 154.239 5.616ZM162.703 4.412C163.426 4.412 164.035 4.573 164.53 4.895C165.025 5.217 165.398 5.66733 165.65 6.246C165.907 6.82467 166.035 7.506 166.035 8.29C166.035 9.06933 165.904 9.753 165.643 10.341C165.386 10.9243 165.008 11.3793 164.509 11.706C164.014 12.028 163.41 12.189 162.696 12.189C161.982 12.189 161.375 12.0327 160.876 11.72C160.381 11.4027 160.003 10.9523 159.742 10.369C159.485 9.78567 159.357 9.09733 159.357 8.304C159.357 7.534 159.485 6.85733 159.742 6.274C160.003 5.69067 160.384 5.23567 160.883 4.909C161.382 4.57767 161.989 4.412 162.703 4.412ZM162.703 5.63C162.138 5.63 161.714 5.847 161.429 6.281C161.144 6.71033 161.002 7.38467 161.002 8.304C161.002 9.21867 161.142 9.893 161.422 10.327C161.707 10.761 162.131 10.978 162.696 10.978C163.261 10.978 163.683 10.761 163.963 10.327C164.248 9.893 164.39 9.214 164.39 8.29C164.39 7.38 164.25 6.71033 163.97 6.281C163.69 5.847 163.268 5.63 162.703 5.63ZM168.207 12V10.88H169.292V5.721H168.207V4.608H170.489L170.776 6.323C171.051 5.70233 171.392 5.231 171.798 4.909C172.208 4.58233 172.736 4.419 173.38 4.419C173.599 4.419 173.795 4.43767 173.968 4.475C174.145 4.50767 174.32 4.552 174.493 4.608L174.024 5.952C173.874 5.91 173.734 5.87967 173.604 5.861C173.473 5.83767 173.328 5.826 173.17 5.826C172.633 5.826 172.169 6.02667 171.777 6.428C171.389 6.82933 171.084 7.39867 170.86 8.136V10.88H172.351V12H168.207ZM173.107 7.331V5.511L173.303 4.608H174.493L174.227 7.331H173.107Z" fill="white"/>
</svg>
